<?xml version="1.0" encoding="utf-8"?>
<!-- Generator: Adobe Illustrator 26.0.1, SVG Export Plug-In . SVG Version: 6.00 Build 0)  -->
<svg version="1.1" id="Layer_1" xmlns="http://www.w3.org/2000/svg" xmlns:xlink="http://www.w3.org/1999/xlink" x="0px" y="0px"
	 viewBox="0 0 305.5 382.3" style="enable-background:new 0 0 305.5 382.3;" xml:space="preserve">
<path d="M195.1,382.3c-1.7,0-3.5,0-5.2,0c-1-0.5-2-1-3-1.4c-13.3-5.3-22.6-13.9-23.7-29c-0.5-6.6-0.7-13.2-0.7-19.7
	c0.1-19,0.3-38,0.4-57c0-0.8-0.1-1.7-0.2-2.5c-2.1,0-4,0-6,0c-0.1,0.8-0.2,1.2-0.1,1.7c0.1,15.7,0.6,31.3,0.3,47
	c-0.2,11.7-1.3,23.3-2.2,34.9c-0.4,5.5-3.1,10.1-6.7,14.2c-5.2,6-12,9.4-19.3,11.9c-1.7,0-3.5,0-5.2,0c-3.6-2.6-4.3-4.9-1.2-7.4
	c6.9-5.9,8.5-13.8,8.7-22.2c0.4-24.9,0.6-49.8,0.8-74.6c0-1-0.1-2-0.3-3.5c-6,5.4-7.3,11.9-7.3,19c-0.1,17.9-0.2,35.8-0.2,53.7
	c0,4.5-0.6,8.8-3.7,12.2c-9.1,10.1-20.6,13.8-33.9,12.2c-1.3-0.2-3.2-1.2-3.5-2.2c-0.3-1,0.7-2.9,1.7-3.8c3.1-2.8,6.6-5.3,9.8-8.1
	c4.6-3.9,7.1-8.7,6.9-14.9c-0.3-12.1-0.2-24.1-0.2-36.2c0-1.3-0.1-2.6-0.2-4c-3.8,0.4-7.1,0.8-10.4,1c-9.6,0.7-19.1,0.9-28.5-1.6
	c-15.2-4-24.8-14.2-31.6-27.9c-3.7-7.4-7.6-14.9-12.7-21.3c-4-5.1-10-8.5-14.9-12.9c-1.3-1.2-2.9-3.5-2.5-4.8
	c0.4-1.3,2.9-2.4,4.7-2.8c10.7-2,19.3,2,26.4,9.7c5,5.5,9.8,11.2,14.3,17.2c6.8,9.1,15.3,14.6,26.8,15.3c9.7,0.7,19.1,0,28-4.2
	c1.3-0.6,2.7-2,2.9-3.3c1.8-9.2,6.6-16.5,13.3-22.8c0.9-0.9,1.9-1.7,2.5-2.3c-10.6-2.6-21.3-4.4-31.5-7.7
	c-24.1-7.7-44.2-21.4-58.5-42.6c-11.7-17.3-18-36.4-18.8-57.2c-0.5-14.7-0.5-29.6,6-43.1c4.3-9,10.6-17,15.9-25.5
	c0.8-1.3,1.2-3.1,1-4.6c-0.7-5-2.1-10-2.5-15c-1.4-14.5,0.1-28.7,5.7-42.4c1-2.3,2.4-3.4,4.8-2.9c7.7,1.6,15.7,2.6,23.1,5.1
	c12.4,4.2,23.6,11,34.4,18.4c1.1,0.8,2.9,1.3,4.3,1.1c8.8-1.6,17.4-4.1,26.2-5.2c26.8-3.2,53.6-2.7,80.1,3c1.6,0.3,3.6-0.1,5.1-0.9
	c9.6-5,18.9-10.4,28.6-15.1c8.2-3.9,16.8-6.8,26-7.2c3.6-0.1,5.7,1.1,7.1,4.5c5.9,14.3,6,29.1,3.8,44c-1,6.8-0.7,12.2,4.3,17.6
	c7.8,8.5,13,18.7,16.5,29.7c7.2,22.8,5.8,45.9,1.5,68.9c-4.2,22-15.7,39.4-33.8,52.5c-16.2,11.7-34.7,17.9-54.2,21.6
	c-4.6,0.9-9.3,1.5-11.8,1.9c2.2,2.9,4.9,6.4,7.6,10c6.8,8.9,8.8,19.5,9,30.2c0.5,20.3,0.4,40.5,0.2,60.8c-0.1,7.1,2.5,12.5,7.7,16.9
	c3.2,2.6,6.4,5.1,9.5,7.8c2.3,1.9,1.4,3.5-0.9,4.5c-1.2,0.5-2.7,0.9-4,0.8c-5.4-0.4-11-0.5-16.2-1.7c-10.5-2.4-18.1-11.4-18.9-21.5
	c-1-14.6-1.5-29.3-2.9-43.9c-0.8-8.2-2.9-16.3-4.8-24.3c-0.5-2.3-2.1-4.7-5.4-4.7c-0.1,0.7-0.1,1.2-0.1,1.7c0,24-0.1,48,0.1,72
	c0,3.4,0.3,7.2,1.9,10.1c2.6,4.9,6.2,9.2,9.5,13.6C197.7,377.1,197.9,378.7,195.1,382.3z"/>
</svg>
